<?xml version="1.0" standalone="yes"?>

<svg version="1.1" viewBox="0.0 0.0 459.25984251968504 116.64304461942257" fill="none" stroke="none" stroke-linecap="square" stroke-miterlimit="10" xmlns="http://www.w3.org/2000/svg" xmlns:xlink="http://www.w3.org/1999/xlink"><clipPath id="p.0"><path d="m0 0l459.25986 0l0 116.64304l-459.25986 0l0 -116.64304z" clip-rule="nonzero"></path></clipPath><g clip-path="url(#p.0)"><path fill="#000000" fill-opacity="0.0" d="m0 0l459.25986 0l0 116.64304l-459.25986 0z" fill-rule="evenodd"></path><path fill="#000000" fill-opacity="0.0" d="m-18.86483 -41.91601l537.8582 0l0 169.32283l-537.8582 0z" fill-rule="evenodd"></path><path fill="#ffffff" d="m1.1507956 89.964l0 -88.703125l53.5 0l0 10.625l-41.09375 0l0 26.75l36.484375 0l0 10.5l-36.484375 0l0 40.82813l-12.40625 0zm64.25163 -33.156254q0 -8.828125 2.546875 -15.421875q2.5625 -6.59375 6.78125 -10.937498q4.234375 -4.359375 9.734375 -6.53125q5.515625 -2.171875 11.265625 -2.171875q13.4375 0 20.609375 8.390625q7.171875 8.374998 7.171875 25.531248q0 0.765625 0 1.984375q0 1.203125 -0.125 2.234375l-45.578125 0q0.78125 10.359379 6.015625 15.750004q5.25 5.375 16.390625 5.375q6.265625 0 10.546875 -1.09375q4.296875 -1.09375 6.484375 -2.109375l1.65625 9.984375q-2.171875 1.140625 -7.625 2.421875q-5.4375 1.28125 -12.34375 1.28125q-8.703125 0 -15.046875 -2.625q-6.328125 -2.625 -10.421875 -7.21875q-4.09375 -4.609375 -6.078125 -10.9375q-1.984375 -6.34375 -1.984375 -13.906254zm45.6875 -6.53125q0.140625 -8.0625 -4.03125 -13.234375q-4.15625 -5.187498 -11.453125 -5.187498q-4.09375 0 -7.234375 1.6093731q-3.125 1.59375 -5.3125 4.15625q-2.171875 2.546875 -3.390625 5.875q-1.21875 3.328125 -1.59375 6.78125l33.015625 0z" fill-rule="nonzero"></path><path fill="#ff6138" d="m155.64195 56.807743q0 18.312504 13.5625 18.312504q2.953125 0 5.828125 -0.765625q2.875 -0.78125 4.671875 -1.921875l0 -34.437504q-1.40625 -0.25 -3.59375 -0.4375q-2.171875 -0.203125 -4.734375 -0.203125q-7.796875 0 -11.765625 5.3125q-3.96875 5.3125 -3.96875 14.140625zm-19.453125 -0.5q0 -7.8125 2.359375 -14.28125q2.375 -6.46875 6.84375 -11.140623q4.484375 -4.671875 11.015625 -7.21875q6.53125 -2.5625 14.84375 -2.5625q3.453125 0 7.234375 0.328125q3.78125 0.3125 7.421875 0.828125q3.65625 0.5 6.984375 1.203125q3.328125 0.703125 5.890625 1.46875l0 88.71875l-19.078125 0l0 -25.34375q-3.203125 1.40625 -6.65625 2.171875q-3.453125 0.765625 -7.421875 0.765625q-14.34375 0 -21.890625 -9.40625q-7.546875 -9.40625 -7.546875 -25.531254z" fill-rule="nonzero"></path><path fill="#ffffff" d="m270.96957 88.04212q-4.09375 1.03125 -10.8125 2.171875q-6.7187347 1.15625 -15.562485 1.15625q-7.671875 0 -12.921875 -2.234375q-5.25 -2.25 -8.453125 -6.34375q-3.203125 -4.09375 -4.609375 -9.65625q-1.40625 -5.578125 -1.40625 -12.359379l0 -37.375l11.90625 0l0 34.8125q0 12.171879 3.84375 17.421879q3.84375 5.234375 12.921875 5.234375q1.921875 0 3.96875 -0.125q2.046875 -0.125 3.84375 -0.3125q1.796875 -0.203125 3.2656097 -0.390625q1.46875 -0.1875 2.109375 -0.453125l0 -56.1875l11.90625 0l0 64.640625zm16.76889 -31.234379q0 -8.828125 2.546875 -15.421875q2.5625 -6.59375 6.78125 -10.937498q4.234375 -4.359375 9.734375 -6.53125q5.515625 -2.171875 11.265625 -2.171875q13.4375 0 20.609375 8.390625q7.171875 8.374998 7.171875 25.531248q0 0.765625 0 1.984375q0 1.203125 -0.125 2.234375l-45.578125 0q0.78125 10.359379 6.015625 15.750004q5.25 5.375 16.390625 5.375q6.265625 0 10.546875 -1.09375q4.296875 -1.09375 6.484375 -2.109375l1.65625 9.984375q-2.171875 1.140625 -7.625 2.421875q-5.4375 1.28125 -12.34375 1.28125q-8.703125 0 -15.046875 -2.625q-6.328125 -2.625 -10.421875 -7.21875q-4.09375 -4.609375 -6.078125 -10.9375q-1.984375 -6.34375 -1.984375 -13.906254zm45.6875 -6.53125q0.140625 -8.0625 -4.03125 -13.234375q-4.15625 -5.187498 -11.453125 -5.187498q-4.09375 0 -7.234375 1.6093731q-3.125 1.59375 -5.3125 4.15625q-2.171875 2.546875 -3.390625 5.875q-1.21875 3.328125 -1.59375 6.78125l33.015625 0zm45.067657 31.109379q7.296875 0 10.8125 -1.921875q3.515625 -1.921875 3.515625 -6.140625q0 -4.34375 -3.453125 -6.90625q-3.453125 -2.5625038 -11.390625 -5.765629q-3.84375 -1.53125 -7.359375 -3.125q-3.515625 -1.609375 -6.078125 -3.78125q-2.5625 -2.1875 -4.109375 -5.25q-1.53125 -3.078125 -1.53125 -7.5625q0 -8.828125 6.53125 -13.999998q6.53125 -5.1875 17.796875 -5.1875q2.8125 0 5.625 0.328125q2.8125 0.3125 5.25 0.765625q2.4375 0.4375 4.28125 0.953125q1.859375 0.515625 2.890625 0.890625l-2.171875 10.234373q-1.921875 -1.015625 -6.03125 -2.09375q-4.09375 -1.0937481 -9.84375 -1.0937481q-5.0 0 -8.71875 1.9843731q-3.703125 1.984375 -3.703125 6.203125q0 2.171875 0.828125 3.84375q0.84375 1.65625 2.5625 3.0q1.734375 1.34375 4.28125 2.5q2.5625 1.15625 6.15625 2.4375q4.734375 1.78125 8.4375 3.515625q3.71875 1.71875 6.34375 4.03125q2.625 2.296875 4.03125 5.562504q1.40625 3.265625 1.40625 8.0q0 9.21875 -6.84375 13.953125q-6.84375 4.734375 -19.515625 4.734375q-8.84375 0 -13.84375 -1.46875q-4.984375 -1.46875 -6.765625 -2.234375l2.171875 -10.25q2.046875 0.78125 6.515625 2.3125q4.484375 1.53125 11.921875 1.53125zm52.728638 -57.984375l25.21875 0l0 9.984373l-25.21875 0l0 30.718754q0 5.0 0.765625 8.265625q0.765625 3.25 2.296875 5.109375q1.546875 1.859375 3.84375 2.625q2.3125 0.765625 5.375 0.765625q5.390625 0 8.640625 -1.203125q3.265625 -1.21875 4.546875 -1.734375l2.3125 9.859375q-1.796875 0.890625 -6.28125 2.234375q-4.46875 1.34375 -10.234375 1.34375q-6.78125 0 -11.203125 -1.71875q-4.40625 -1.734375 -7.109375 -5.1875q-2.6875 -3.453125 -3.78125 -8.515625q-1.078125 -5.0625 -1.078125 -11.71875l0 -59.39063l11.90625 -2.046875l0 20.609375z" fill-rule="nonzero"></path></g></svg>

